<svg width="100" height="38" fill="none" xmlns="http://www.w3.org/2000/svg"><path d="M1.03 18.52V.13h2.302v8.012h2.38v2.233h-2.38v8.143H1.03zm6.004-8.144V8.143h2.354V.131h2.328V18.52H9.388v-8.143H7.034zm6.745 4.256V8.143c0-.823.37-1.628 1.11-2.416.917-.946 2.063-1.419 3.439-1.419v2.128c-1.04 0-1.764.429-2.169 1.287a1.84 1.84 0 00-.185.788v5.779c0 .648.3 1.2.9 1.655a2.37 2.37 0 001.454.473v2.128c-1.675 0-2.971-.675-3.888-2.023-.44-.666-.661-1.296-.661-1.891zm5.686 3.914v-2.128c.934 0 1.605-.42 2.01-1.261.141-.28.212-.552.212-.814V8.51c0-.718-.309-1.287-.926-1.707a2.423 2.423 0 00-1.322-.368V4.308c1.622 0 2.873.657 3.755 1.97.44.648.661 1.27.661 1.865v6.489c0 .858-.37 1.69-1.11 2.495-.864.928-1.958 1.401-3.28 1.419zm6.4-3.809V4.334h2.248v10.14c0 .63.318 1.156.953 1.576a2.6 2.6 0 001.401.394v2.207c-1.692 0-2.997-.657-3.914-1.97-.458-.666-.688-1.314-.688-1.944zm5.766 3.914v-2.207c.952 0 1.648-.377 2.09-1.13.158-.28.237-.56.237-.84V4.334h2.248v10.403c0 .823-.379 1.637-1.137 2.443-.917.963-2.063 1.453-3.438 1.47zm6.109-3.861l2.09-.395c0 .788.414 1.41 1.243 1.865.405.193.793.298 1.163.315v2.076c-1.71 0-2.988-.613-3.834-1.84-.441-.647-.662-1.321-.662-2.022zm.133-6.463c0-1.594.731-2.776 2.195-3.546.705-.368 1.41-.552 2.116-.552v2.05c-.811 0-1.437.332-1.878.997-.23.333-.344.683-.344 1.051 0 .56.44 1.016 1.322 1.366.67.28 1.966.648 3.888 1.103 1.2.245 2.054.832 2.566 1.76a3.43 3.43 0 01.396 1.655c0 1.681-.678 2.925-2.036 3.73-.794.473-1.702.71-2.724.71v-2.076c.81 0 1.49-.28 2.036-.84a1.98 1.98 0 00.582-1.419c0-.7-.696-1.26-2.09-1.68a42.469 42.469 0 00-1.692-.447c-.829-.193-1.428-.35-1.798-.473-1.34-.526-2.151-1.322-2.434-2.39a4.563 4.563 0 01-.105-.999zm5.474-2.023V4.23c1.517 0 2.742.56 3.677 1.681.581.718.872 1.471.872 2.26l-2.089.341c0-.963-.529-1.637-1.587-2.023a2.442 2.442 0 00-.873-.184zm6.348 8.328V8.117c.017-.806.405-1.602 1.163-2.39.917-.929 2.028-1.401 3.333-1.419v2.075c-.846 0-1.508.368-1.984 1.104-.194.315-.29.604-.29.866v1.787h5.924V8.353c0-.788-.406-1.366-1.217-1.733a2.633 2.633 0 00-1.137-.263V4.308c1.216 0 2.3.43 3.253 1.287.793.753 1.199 1.585 1.217 2.496v4.176h-8.04v2.365c0 .49.282.945.846 1.366.458.315.943.472 1.454.472v2.05c-1.604 0-2.865-.649-3.782-1.945-.493-.683-.74-1.33-.74-1.943zm5.792 3.887v-2.075c1.058 0 1.851-.455 2.38-1.366.106-.193.185-.376.238-.552l1.878.683c-.317 1.209-1.04 2.12-2.169 2.732a4.874 4.874 0 01-2.327.578zM61.279.131h2.327l4.708 15.971-.846 2.417h-.82L61.279.131zm6.453 9.746L71.012.13h2.327c-.159.508-.82 2.54-1.983 6.095a1302.934 1302.934 0 00-2.328 7.118h-.264l-1.032-3.467zm6.877 3.52V4.755c0-.929.396-1.874 1.19-2.837C76.857.657 78.197.018 79.819 0v2.285c-1.076 0-1.913.543-2.513 1.629-.246.473-.37.893-.37 1.26v8.223c0 1.103.547 1.961 1.64 2.574.458.263.864.394 1.216.394v2.286c-1.005 0-2.01-.36-3.015-1.077-1.428-1.051-2.15-2.443-2.168-4.177zm6.638 5.254v-2.286c.617 0 1.243-.271 1.878-.814.67-.595 1.014-1.313 1.031-2.154V5.175c0-.683-.282-1.34-.846-1.97-.582-.596-1.27-.902-2.063-.92V0c1.78 0 3.21.762 4.285 2.285.617.876.925 1.699.925 2.47v8.642c0 1.944-.872 3.432-2.618 4.466-.917.525-1.78.788-2.592.788zm7.353-.131h2.3V.13h-2.3v18.39zm3.623-8.223h2.856c2.31-.017 3.756-.893 4.338-2.627.229-.7.344-1.532.344-2.495 0-3.205-1.455-4.886-4.364-5.044h-3.174v2.207h2.486c1.78.035 2.68.98 2.698 2.837-.036 1.909-.926 2.872-2.671 2.89h-2.513v2.232zM2.149 34.647L.235 31.58h.722l1.733 2.825h1.2V31.58h.696v2.825h1.2l1.725-2.825h.731L6.32 34.647l2.158 3.3h-.731l-1.87-2.987h-1.29v2.986h-.695V34.96H2.6L.73 37.946H0l2.149-3.3zm8.885 2.358l3.973-5.425h.523v6.366h-.632v-5.335l-3.909 5.335h-.577V31.58h.622v5.425zm8.658-3.739a21.454 21.454 0 01-.28 2.16c-.108.598-.246 1.089-.415 1.471-.162.377-.36.655-.596.834-.228.173-.5.26-.812.26l-.108-.6a1.1 1.1 0 00.343-.072.863.863 0 00.325-.225c.102-.113.198-.266.288-.457a4.57 4.57 0 00.253-.753c.078-.31.148-.684.208-1.12.066-.437.123-.954.171-1.552l.136-1.632h3.259v6.366h-.623v-5.81h-2.058l-.09 1.13zm8.083 4.725c-.445 0-.854-.09-1.227-.269a3.147 3.147 0 01-.948-.726 3.355 3.355 0 01-.614-1.04 3.398 3.398 0 01.009-2.412c.156-.389.37-.732.64-1.031.272-.3.59-.535.958-.709a2.682 2.682 0 011.192-.269c.445 0 .851.096 1.218.287.373.186.69.43.948.735.265.305.47.652.614 1.04a3.298 3.298 0 01-.018 2.395c-.15.388-.361.732-.632 1.03-.265.294-.58.53-.948.709a2.76 2.76 0 01-1.192.26zm-2.374-3.228c0 .347.057.682.172 1.004.114.317.277.601.487.852.21.245.46.443.75.592.288.143.61.215.965.215.362 0 .69-.078.984-.233.295-.155.545-.359.75-.61.204-.25.36-.535.47-.852a2.831 2.831 0 00-.01-1.963 2.648 2.648 0 00-.487-.852 2.356 2.356 0 00-.75-.583 2.052 2.052 0 00-.957-.224c-.36 0-.689.078-.984.233a2.29 2.29 0 00-.749.601 2.887 2.887 0 00-.478.852c-.109.317-.163.64-.163.968zm11.627-5.03a.865.865 0 01-.37.69c-.228.168-.547.252-.957.252-.409 0-.73-.084-.966-.252a.873.873 0 01-.36-.69h.388c0 .078.024.152.072.224a.665.665 0 00.198.188c.085.054.184.1.298.135a1.5 1.5 0 00.38.045c.258 0 .472-.054.64-.162.175-.113.274-.257.298-.43h.38zm-3.34 7.272l3.972-5.425h.524v6.366h-.632v-5.335l-3.909 5.335h-.578V31.58h.623v5.425zm11.221-2.601h.975l2.094-2.824h.722l-2.248 3.067 2.483 3.3h-.722l-2.275-2.987h-1.03v2.986h-.622V31.58h.623v2.825zm8.217 3.587c-.445 0-.855-.09-1.228-.269a3.147 3.147 0 01-.948-.726 3.355 3.355 0 01-.614-1.04 3.398 3.398 0 01.01-2.412c.156-.389.37-.732.64-1.031.271-.3.59-.535.957-.709a2.68 2.68 0 011.192-.269c.445 0 .852.096 1.219.287.373.186.689.43.947.735.265.305.47.652.614 1.04a3.3 3.3 0 01-.018 2.395 3.25 3.25 0 01-.632 1.03c-.264.294-.58.53-.947.709-.368.173-.765.26-1.192.26zm-2.374-3.228c0 .347.057.682.171 1.004.114.317.277.601.488.852.21.245.46.443.749.592.289.143.61.215.966.215.36 0 .689-.078.984-.233a2.41 2.41 0 00.75-.61c.204-.25.36-.535.469-.852a2.834 2.834 0 00-.01-1.963 2.65 2.65 0 00-.487-.852c-.21-.245-.46-.44-.75-.583a2.052 2.052 0 00-.956-.224c-.361 0-.69.078-.984.233a2.29 2.29 0 00-.75.601 2.89 2.89 0 00-.478.852c-.108.317-.162.64-.162.968zm13.333 3.183V32.72l-2.338 4.044h-.37l-2.338-4.044v5.227h-.632V31.58h.65l2.5 4.358 2.519-4.358h.641v6.366h-.632zm3.357-6.366h4.947v6.366h-.632v-5.81h-3.692v5.81h-.623V31.58zm9.105 1.686a21.486 21.486 0 01-.28 2.16c-.108.598-.247 1.089-.415 1.471-.163.377-.362.655-.596.834-.229.173-.5.26-.813.26l-.108-.6c.12-.007.235-.03.343-.072a.862.862 0 00.325-.225c.102-.113.198-.266.289-.457a4.58 4.58 0 00.253-.753c.078-.31.147-.684.207-1.12a22.6 22.6 0 00.172-1.552l.135-1.632h3.26v6.366h-.624v-5.81h-2.058l-.09 1.13zm9.807 4.124v.556h-4.306V31.58h4.225v.556H82.68v2.295h3.132v.53H82.68v2.43h3.674zm2.91-2.986h.975l2.095-2.824h.722l-2.248 3.067 2.483 3.3h-.723l-2.275-2.987h-1.029v2.986h-.623V31.58h.623v2.825zm5.202.314c0-.382.066-.762.199-1.138a3.21 3.21 0 01.596-1.023c.258-.298.577-.54.957-.726a2.827 2.827 0 011.29-.287c.572 0 1.06.129 1.463.386.41.257.71.592.903 1.004l-.497.305a1.836 1.836 0 00-.38-.53c-.144-.143-.3-.26-.469-.349a1.896 1.896 0 00-.523-.188 2.356 2.356 0 00-.533-.063c-.385 0-.725.078-1.02.233a2.395 2.395 0 00-.75.61 2.696 2.696 0 00-.45.852c-.103.31-.154.627-.154.95 0 .353.06.69.18 1.013.127.323.295.61.506.861.217.245.47.443.758.592.295.143.614.215.957.215.18 0 .365-.02.551-.063a2.294 2.294 0 001.047-.582c.15-.15.277-.33.38-.538l.523.269c-.102.239-.247.45-.433.636-.187.18-.394.332-.623.457a3.098 3.098 0 01-.731.287 2.97 2.97 0 01-.75.099c-.44 0-.842-.096-1.21-.287a3.204 3.204 0 01-.947-.744 3.62 3.62 0 01-.623-1.05 3.47 3.47 0 01-.217-1.2z" fill="#fff"/></svg>